<svg xmlns="http://www.w3.org/2000/svg" width="1920" height="1080"><defs><style>.b{fill:#f5f7fb}.n{fill:#fff;stroke:#2463eb;stroke-width:4;rx:24}.a{fill:#e9f8ef;stroke:#0a8a4b;stroke-width:4;rx:24}.t{font:700 50px 'Segoe UI';fill:#14213d}.h{font:700 30px 'Segoe UI';fill:#14213d}.p{font:22px 'Segoe UI';fill:#516078}.e{stroke:#2463eb;stroke-width:5}</style></defs><rect class="b" width="1920" height="1080"/><text class="t" x="120" y="120">Adapter Architecture</text><rect class="n" x="710" y="210" width="500" height="150"/><text class="h" x="820" y="275">Shared Adapter Contract</text><text class="p" x="785" y="320">connect · timeout · execute · normalize</text><line class="e" x1="960" y1="360" x2="960" y2="455"/><line class="e" x1="390" y1="455" x2="1530" y2="455"/><line class="e" x1="390" y1="455" x2="390" y2="540"/><line class="e" x1="960" y1="455" x2="960" y2="540"/><line class="e" x1="1530" y1="455" x2="1530" y2="540"/><rect class="n" x="230" y="540" width="320" height="190"/><text class="h" x="330" y="610">MySQL</text><text class="p" x="305" y="665">PyMySQL</text><rect class="n" x="800" y="540" width="320" height="190"/><text class="h" x="870" y="610">PostgreSQL</text><text class="p" x="885" y="665">psycopg2</text><rect class="n" x="1370" y="540" width="320" height="190"/><text class="h" x="1490" y="610">DM8</text><text class="p" x="1425" y="665">dmPython / SQLAlchemy</text><rect class="a" x="610" y="835" width="700" height="130"/><text class="h" x="780" y="895">Normalized JSON Result</text><text class="p" x="725" y="938">columns · rows · truncation · timing · warning</text></svg>
