<svg xmlns="http://www.w3.org/2000/svg" width="1920" height="1080"><defs><style>.b{fill:#f5f7fb}.n{fill:#fff;stroke:#2463eb;stroke-width:4;rx:24}.s{fill:#e9f8ef;stroke:#0a8a4b;stroke-width:4;rx:24}.t{font:700 50px 'Segoe UI';fill:#14213d}.h{font:700 30px 'Segoe UI';fill:#14213d}.p{font:22px 'Segoe UI';fill:#516078}.e{stroke:#2463eb;stroke-width:5}</style></defs><rect class="b" width="1920" height="1080"/><text class="t" x="120" y="120">Verification Architecture</text><rect class="n" x="710" y="200" width="500" height="150"/><text class="h" x="850" y="265">verify_all.ps1</text><text class="p" x="800" y="310">single release acceptance entry</text><line class="e" x1="960" y1="350" x2="960" y2="445"/><line class="e" x1="390" y1="445" x2="1530" y2="445"/><line class="e" x1="390" y1="445" x2="390" y2="530"/><line class="e" x1="960" y1="445" x2="960" y2="530"/><line class="e" x1="1530" y1="445" x2="1530" y2="530"/><rect class="n" x="230" y="530" width="320" height="180"/><text class="h" x="300" y="600">Provider</text><text class="p" x="335" y="655">6 PASS</text><rect class="n" x="800" y="530" width="320" height="180"/><text class="h" x="930" y="600">Tool</text><text class="p" x="900" y="655">27 PASS</text><rect class="n" x="1370" y="530" width="320" height="180"/><text class="h" x="1450" y="600">Workflow</text><text class="p" x="1465" y="655">12 PASS</text><rect class="s" x="610" y="825" width="700" height="140"/><text class="h" x="800" y="885">45 PASS / 0 FAIL / 0 SKIP</text><text class="p" x="790" y="930">JSON evidence → Reports → Dashboard</text></svg>
