<svg xmlns="http://www.w3.org/2000/svg" width="1920" height="1080"><defs><style>.b{fill:#f5f7fb}.n{fill:#fff;stroke:#2463eb;stroke-width:4;rx:24}.s{fill:#e9f8ef;stroke:#0a8a4b;stroke-width:4;rx:24}.t{font:700 50px 'Segoe UI';fill:#14213d}.h{font:700 30px 'Segoe UI';fill:#14213d}.p{font:22px 'Segoe UI';fill:#516078}.e{stroke:#2463eb;stroke-width:5;marker-end:url(#a)}</style><marker id="a" viewBox="0 0 10 10" refX="9" refY="5" markerWidth="8" markerHeight="8" orient="auto"><path d="M0 0L10 5L0 10z" fill="#2463eb"/></marker></defs><rect class="b" width="1920" height="1080"/><text class="t" x="120" y="120">Workflow Architecture</text><line class="e" x1="440" y1="500" x2="620" y2="500"/><line class="e" x1="950" y1="500" x2="1130" y2="500"/><line class="e" x1="1460" y1="500" x2="1650" y2="500"/><rect class="n" x="110" y="390" width="330" height="220"/><text class="h" x="220" y="465">Start</text><text class="p" x="165" y="520">sql · max_rows</text><text class="p" x="165" y="560">用户输入契约</text><rect class="n" x="620" y="390" width="330" height="220"/><text class="h" x="680" y="465">Readonly Tool</text><text class="p" x="680" y="520">Provider + Adapter</text><text class="p" x="680" y="560">安全执行</text><rect class="n" x="1130" y="390" width="330" height="220"/><text class="h" x="1240" y="465">Output</text><text class="p" x="1190" y="520">jsonArray[object]</text><text class="p" x="1190" y="560">稳定结果</text><rect class="s" x="1650" y="390" width="170" height="220"/><text class="h" x="1690" y="465">API</text><text class="p" x="1685" y="520">HTTP 200</text><text class="p" x="1685" y="560">JSON</text><rect class="s" x="420" y="770" width="1080" height="140"/><text class="h" x="705" y="830">Accepted real cases</text><text class="p" x="600" y="875">SELECT 1 · 中文测试 · CURRENT_TIMESTAMP · dangerous SQL rejection</text></svg>
